# xmcd CD database file
#
# Track frame offsets:
#	150
#	24050
#	50747
#	79802
#
# Disc length: 1323 seconds
#
# Revision: 0
# Processed by: cddbd v1.5PL3 Copyright (c) Steve Scherf et al.
# Submitted via: CDex 1.50
#
DISCID=25052904
DTITLE=フィッシュマンズ - MELODY
DYEAR=1994
DGENRE=Rock
TTITLE0=Melody
TTITLE1=静かな朝
TTITLE2=オアシスへようこそ
TTITLE3=Wedding Baby
EXTD=YEAR: 1994
EXTT0=
EXTT1=
EXTT2=
EXTT3=
PLAYORDER=
